<mxfile host="app.diagrams.net" modified="2022-07-21T04:37:32.196Z" agent="5.0 (Windows NT 10.0; Win64; x64) AppleWebKit/537.36 (KHTML, like Gecko) Chrome/103.0.5060.114 Safari/537.36 Edg/103.0.1264.62" etag="K97jcDSr4O0dK_RwXLuA" version="20.1.3" type="github">
  <diagram id="2-WK6CfX29Ccf8jMQsmk" name="Page-1">
    <mxGraphModel dx="1022" dy="1568" grid="1" gridSize="10" guides="1" tooltips="1" connect="1" arrows="1" fold="1" page="1" pageScale="1" pageWidth="850" pageHeight="1100" math="0" shadow="0">
      <root>
        <mxCell id="0" />
        <mxCell id="1" parent="0" />
        <mxCell id="eBpZWtK9SrVDtpuc7pxj-33" value="Private App subnet1&lt;br&gt;" style="points=[[0,0],[0.25,0],[0.5,0],[0.75,0],[1,0],[1,0.25],[1,0.5],[1,0.75],[1,1],[0.75,1],[0.5,1],[0.25,1],[0,1],[0,0.75],[0,0.5],[0,0.25]];outlineConnect=0;gradientColor=none;html=1;whiteSpace=wrap;fontSize=12;fontStyle=0;container=1;pointerEvents=0;collapsible=0;recursiveResize=0;shape=mxgraph.aws4.group;grIcon=mxgraph.aws4.group_security_group;grStroke=0;strokeColor=#147EBA;fillColor=#E6F2F8;verticalAlign=top;align=left;spacingLeft=30;fontColor=#147EBA;dashed=0;" vertex="1" parent="1">
          <mxGeometry x="30" y="130" width="280" height="440" as="geometry" />
        </mxCell>
        <mxCell id="eBpZWtK9SrVDtpuc7pxj-35" value="" style="outlineConnect=0;dashed=0;verticalLabelPosition=bottom;verticalAlign=top;align=center;html=1;shape=mxgraph.aws3.redis;fillColor=#2E73B8;gradientColor=none;" vertex="1" parent="eBpZWtK9SrVDtpuc7pxj-33">
          <mxGeometry x="10" y="40" width="30" height="40" as="geometry" />
        </mxCell>
        <mxCell id="eBpZWtK9SrVDtpuc7pxj-37" value="" style="aspect=fixed;perimeter=ellipsePerimeter;html=1;align=center;shadow=0;dashed=0;spacingTop=3;image;image=img/lib/active_directory/generic_server.svg;" vertex="1" parent="eBpZWtK9SrVDtpuc7pxj-33">
          <mxGeometry x="12" y="150" width="28.000000000000004" height="50" as="geometry" />
        </mxCell>
        <mxCell id="eBpZWtK9SrVDtpuc7pxj-39" value="" style="sketch=0;points=[[0,0,0],[0.25,0,0],[0.5,0,0],[0.75,0,0],[1,0,0],[0,1,0],[0.25,1,0],[0.5,1,0],[0.75,1,0],[1,1,0],[0,0.25,0],[0,0.5,0],[0,0.75,0],[1,0.25,0],[1,0.5,0],[1,0.75,0]];outlineConnect=0;fontColor=#232F3E;gradientColor=#945DF2;gradientDirection=north;fillColor=#5A30B5;strokeColor=#ffffff;dashed=0;verticalLabelPosition=bottom;verticalAlign=top;align=center;html=1;fontSize=12;fontStyle=0;aspect=fixed;shape=mxgraph.aws4.resourceIcon;resIcon=mxgraph.aws4.managed_streaming_for_kafka;" vertex="1" parent="eBpZWtK9SrVDtpuc7pxj-33">
          <mxGeometry x="10" y="90" width="50" height="50" as="geometry" />
        </mxCell>
        <mxCell id="eBpZWtK9SrVDtpuc7pxj-45" value="&lt;pre style=&quot;font-size: 12px; font-style: normal; font-variant-ligatures: normal; font-variant-caps: normal; font-weight: 400; letter-spacing: normal; orphans: 2; text-indent: 0px; text-transform: none; widows: 2; word-spacing: 0px; -webkit-text-stroke-width: 0px; text-decoration-thickness: initial; text-decoration-style: initial; text-decoration-color: initial; padding: 8px; font-family: Monaco, Menlo, Consolas, &amp;quot;Courier New&amp;quot;, monospace; color: rgb(29, 28, 29); border-radius: 4px; margin-top: 4px; margin-bottom: 4px; line-height: 1.50001; word-break: normal; overflow-wrap: break-word; background: rgba(var(--sk_foreground_min,29,28,29),0.04); border: 1px solid var(--saf-0); text-align: left; box-sizing: inherit; --saf-0:rgba(var(--sk_foreground_low,29,28,29),0.13); tab-size: 4; counter-reset: list-0 0 list-1 0 list-2 0 list-3 0 list-4 0 list-5 0 list-6 0 list-7 0 list-8 0 list-9 0;&quot; data-stringify-type=&quot;pre&quot; class=&quot;c-mrkdwn__pre&quot;&gt;rdisKafka Client servers&lt;/pre&gt;" style="text;whiteSpace=wrap;html=1;" vertex="1" parent="eBpZWtK9SrVDtpuc7pxj-33">
          <mxGeometry x="65" y="80" width="210" height="70" as="geometry" />
        </mxCell>
        <mxCell id="eBpZWtK9SrVDtpuc7pxj-46" value="&lt;pre style=&quot;padding: 8px; font-family: Monaco, Menlo, Consolas, &amp;quot;Courier New&amp;quot;, monospace; font-size: 12px; color: rgb(29, 28, 29); border-radius: 4px; display: block; margin: 4px 0px; line-height: 1.50001; word-break: normal; overflow-wrap: break-word; background: rgba(var(--sk_foreground_min,29,28,29),0.04); border: 1px solid var(--saf-0); font-style: normal; font-variant-ligatures: normal; font-variant-caps: normal; font-weight: 400; letter-spacing: normal; orphans: 2; text-align: left; text-indent: 0px; text-transform: none; widows: 2; word-spacing: 0px; -webkit-text-stroke-width: 0px; text-decoration-thickness: initial; text-decoration-style: initial; text-decoration-color: initial; box-sizing: inherit; --saf-0:rgba(var(--sk_foreground_low,29,28,29),0.13); tab-size: 4; counter-reset: list-0 0 list-1 0 list-2 0 list-3 0 list-4 0 list-5 0 list-6 0 list-7 0 list-8 0 list-9 0;&quot; data-stringify-type=&quot;pre&quot; class=&quot;c-mrkdwn__pre&quot;&gt;ES Client servers&lt;/pre&gt;" style="text;whiteSpace=wrap;html=1;" vertex="1" parent="eBpZWtK9SrVDtpuc7pxj-33">
          <mxGeometry x="60" y="140" width="160" height="70" as="geometry" />
        </mxCell>
        <mxCell id="eBpZWtK9SrVDtpuc7pxj-50" value="" style="aspect=fixed;perimeter=ellipsePerimeter;html=1;align=center;shadow=0;dashed=0;spacingTop=3;image;image=img/lib/active_directory/generic_server.svg;" vertex="1" parent="eBpZWtK9SrVDtpuc7pxj-33">
          <mxGeometry x="12" y="210" width="28.000000000000004" height="50" as="geometry" />
        </mxCell>
        <mxCell id="eBpZWtK9SrVDtpuc7pxj-48" value="&lt;pre style=&quot;padding: 8px; font-family: Monaco, Menlo, Consolas, &amp;quot;Courier New&amp;quot;, monospace; font-size: 12px; color: rgb(29, 28, 29); border-radius: 4px; display: block; margin: 4px 0px; line-height: 1.50001; word-break: normal; overflow-wrap: break-word; background: rgba(var(--sk_foreground_min,29,28,29),0.04); border: 1px solid var(--saf-0); font-style: normal; font-variant-ligatures: normal; font-variant-caps: normal; font-weight: 400; letter-spacing: normal; orphans: 2; text-align: left; text-indent: 0px; text-transform: none; widows: 2; word-spacing: 0px; -webkit-text-stroke-width: 0px; text-decoration-thickness: initial; text-decoration-style: initial; text-decoration-color: initial; box-sizing: inherit; --saf-0:rgba(var(--sk_foreground_low,29,28,29),0.13); tab-size: 4; counter-reset: list-0 0 list-1 0 list-2 0 list-3 0 list-4 0 list-5 0 list-6 0 list-7 0 list-8 0 list-9 0;&quot; data-stringify-type=&quot;pre&quot; class=&quot;c-mrkdwn__pre&quot;&gt;kafkaES Client servers&lt;/pre&gt;" style="text;whiteSpace=wrap;html=1;" vertex="1" parent="eBpZWtK9SrVDtpuc7pxj-33">
          <mxGeometry x="60" y="200" width="200" height="70" as="geometry" />
        </mxCell>
        <mxCell id="eBpZWtK9SrVDtpuc7pxj-53" value="&lt;pre style=&quot;padding: 8px; font-family: Monaco, Menlo, Consolas, &amp;quot;Courier New&amp;quot;, monospace; font-size: 12px; color: rgb(29, 28, 29); border-radius: 4px; display: block; margin: 4px 0px; line-height: 1.50001; word-break: normal; overflow-wrap: break-word; background: rgba(var(--sk_foreground_min,29,28,29),0.04); border: 1px solid var(--saf-0); font-style: normal; font-variant-ligatures: normal; font-variant-caps: normal; font-weight: 400; letter-spacing: normal; orphans: 2; text-align: left; text-indent: 0px; text-transform: none; widows: 2; word-spacing: 0px; -webkit-text-stroke-width: 0px; text-decoration-thickness: initial; text-decoration-style: initial; text-decoration-color: initial; box-sizing: inherit; --saf-0:rgba(var(--sk_foreground_low,29,28,29),0.13); tab-size: 4; counter-reset: list-0 0 list-1 0 list-2 0 list-3 0 list-4 0 list-5 0 list-6 0 list-7 0 list-8 0 list-9 0;&quot; data-stringify-type=&quot;pre&quot; class=&quot;c-mrkdwn__pre&quot;&gt;MySQL Client servers&lt;/pre&gt;" style="text;whiteSpace=wrap;html=1;" vertex="1" parent="eBpZWtK9SrVDtpuc7pxj-33">
          <mxGeometry x="65" y="260" width="180" height="40" as="geometry" />
        </mxCell>
        <mxCell id="eBpZWtK9SrVDtpuc7pxj-54" value="" style="outlineConnect=0;dashed=0;verticalLabelPosition=bottom;verticalAlign=top;align=center;html=1;shape=mxgraph.aws3.mysql_db_instance;fillColor=#2E73B8;gradientColor=none;" vertex="1" parent="eBpZWtK9SrVDtpuc7pxj-33">
          <mxGeometry x="1" y="260" width="50" height="50" as="geometry" />
        </mxCell>
        <mxCell id="eBpZWtK9SrVDtpuc7pxj-58" value="" style="dashed=0;outlineConnect=0;html=1;align=center;labelPosition=center;verticalLabelPosition=bottom;verticalAlign=top;shape=mxgraph.webicons.mongodb;gradientColor=#DFDEDE" vertex="1" parent="eBpZWtK9SrVDtpuc7pxj-33">
          <mxGeometry y="320" width="50" height="40" as="geometry" />
        </mxCell>
        <mxCell id="eBpZWtK9SrVDtpuc7pxj-56" value="&lt;pre style=&quot;padding: 8px; font-family: Monaco, Menlo, Consolas, &amp;quot;Courier New&amp;quot;, monospace; font-size: 12px; color: rgb(29, 28, 29); border-radius: 4px; display: block; margin: 4px 0px; line-height: 1.50001; word-break: normal; overflow-wrap: break-word; background: rgba(var(--sk_foreground_min,29,28,29),0.04); border: 1px solid var(--saf-0); font-style: normal; font-variant-ligatures: normal; font-variant-caps: normal; font-weight: 400; letter-spacing: normal; orphans: 2; text-align: left; text-indent: 0px; text-transform: none; widows: 2; word-spacing: 0px; -webkit-text-stroke-width: 0px; text-decoration-thickness: initial; text-decoration-style: initial; text-decoration-color: initial; box-sizing: inherit; --saf-0:rgba(var(--sk_foreground_low,29,28,29),0.13); tab-size: 4; counter-reset: list-0 0 list-1 0 list-2 0 list-3 0 list-4 0 list-5 0 list-6 0 list-7 0 list-8 0 list-9 0;&quot; data-stringify-type=&quot;pre&quot; class=&quot;c-mrkdwn__pre&quot;&gt;MongoDB Client servers&lt;/pre&gt;" style="text;whiteSpace=wrap;html=1;" vertex="1" parent="eBpZWtK9SrVDtpuc7pxj-33">
          <mxGeometry x="65" y="310" width="200" height="70" as="geometry" />
        </mxCell>
        <mxCell id="eBpZWtK9SrVDtpuc7pxj-62" value="" style="sketch=0;points=[[0,0,0],[0.25,0,0],[0.5,0,0],[0.75,0,0],[1,0,0],[0,1,0],[0.25,1,0],[0.5,1,0],[0.75,1,0],[1,1,0],[0,0.25,0],[0,0.5,0],[0,0.75,0],[1,0.25,0],[1,0.5,0],[1,0.75,0]];outlineConnect=0;fontColor=#232F3E;gradientColor=#4D72F3;gradientDirection=north;fillColor=#3334B9;strokeColor=#ffffff;dashed=0;verticalLabelPosition=bottom;verticalAlign=top;align=center;html=1;fontSize=12;fontStyle=0;aspect=fixed;shape=mxgraph.aws4.resourceIcon;resIcon=mxgraph.aws4.documentdb_with_mongodb_compatibility;" vertex="1" parent="eBpZWtK9SrVDtpuc7pxj-33">
          <mxGeometry x="12" y="370" width="30" height="30" as="geometry" />
        </mxCell>
        <mxCell id="eBpZWtK9SrVDtpuc7pxj-60" value="&lt;pre style=&quot;padding: 8px; font-family: Monaco, Menlo, Consolas, &amp;quot;Courier New&amp;quot;, monospace; font-size: 12px; color: rgb(29, 28, 29); border-radius: 4px; display: block; margin: 4px 0px; line-height: 1.50001; word-break: normal; overflow-wrap: break-word; background: rgba(var(--sk_foreground_min,29,28,29),0.04); border: 1px solid var(--saf-0); font-style: normal; font-variant-ligatures: normal; font-variant-caps: normal; font-weight: 400; letter-spacing: normal; orphans: 2; text-align: left; text-indent: 0px; text-transform: none; widows: 2; word-spacing: 0px; -webkit-text-stroke-width: 0px; text-decoration-thickness: initial; text-decoration-style: initial; text-decoration-color: initial; box-sizing: inherit; --saf-0:rgba(var(--sk_foreground_low,29,28,29),0.13); tab-size: 4; counter-reset: list-0 0 list-1 0 list-2 0 list-3 0 list-4 0 list-5 0 list-6 0 list-7 0 list-8 0 list-9 0;&quot; data-stringify-type=&quot;pre&quot; class=&quot;c-mrkdwn__pre&quot;&gt;ESMongoDB Client servers&lt;/pre&gt;" style="text;whiteSpace=wrap;html=1;" vertex="1" parent="eBpZWtK9SrVDtpuc7pxj-33">
          <mxGeometry x="65" y="370" width="185" height="40" as="geometry" />
        </mxCell>
        <mxCell id="eBpZWtK9SrVDtpuc7pxj-34" value="Private App subnet2" style="points=[[0,0],[0.25,0],[0.5,0],[0.75,0],[1,0],[1,0.25],[1,0.5],[1,0.75],[1,1],[0.75,1],[0.5,1],[0.25,1],[0,1],[0,0.75],[0,0.5],[0,0.25]];outlineConnect=0;gradientColor=none;html=1;whiteSpace=wrap;fontSize=12;fontStyle=0;container=1;pointerEvents=0;collapsible=0;recursiveResize=0;shape=mxgraph.aws4.group;grIcon=mxgraph.aws4.group_security_group;grStroke=0;strokeColor=#147EBA;fillColor=#E6F2F8;verticalAlign=top;align=left;spacingLeft=30;fontColor=#147EBA;dashed=0;" vertex="1" parent="1">
          <mxGeometry x="570" y="110" width="300" height="450" as="geometry" />
        </mxCell>
        <mxCell id="eBpZWtK9SrVDtpuc7pxj-36" value="" style="outlineConnect=0;dashed=0;verticalLabelPosition=bottom;verticalAlign=top;align=center;html=1;shape=mxgraph.aws3.redis;fillColor=#2E73B8;gradientColor=none;" vertex="1" parent="eBpZWtK9SrVDtpuc7pxj-34">
          <mxGeometry x="24" y="40" width="40" height="31.5" as="geometry" />
        </mxCell>
        <mxCell id="eBpZWtK9SrVDtpuc7pxj-38" value="" style="aspect=fixed;perimeter=ellipsePerimeter;html=1;align=center;shadow=0;dashed=0;spacingTop=3;image;image=img/lib/active_directory/generic_server.svg;" vertex="1" parent="eBpZWtK9SrVDtpuc7pxj-34">
          <mxGeometry x="30" y="140" width="28.000000000000004" height="50" as="geometry" />
        </mxCell>
        <mxCell id="eBpZWtK9SrVDtpuc7pxj-40" value="" style="sketch=0;points=[[0,0,0],[0.25,0,0],[0.5,0,0],[0.75,0,0],[1,0,0],[0,1,0],[0.25,1,0],[0.5,1,0],[0.75,1,0],[1,1,0],[0,0.25,0],[0,0.5,0],[0,0.75,0],[1,0.25,0],[1,0.5,0],[1,0.75,0]];outlineConnect=0;fontColor=#232F3E;gradientColor=#945DF2;gradientDirection=north;fillColor=#5A30B5;strokeColor=#ffffff;dashed=0;verticalLabelPosition=bottom;verticalAlign=top;align=center;html=1;fontSize=12;fontStyle=0;aspect=fixed;shape=mxgraph.aws4.resourceIcon;resIcon=mxgraph.aws4.managed_streaming_for_kafka;" vertex="1" parent="eBpZWtK9SrVDtpuc7pxj-34">
          <mxGeometry x="24" y="85" width="40" height="40" as="geometry" />
        </mxCell>
        <mxCell id="eBpZWtK9SrVDtpuc7pxj-41" value="&lt;pre style=&quot;padding: 8px; font-family: Monaco, Menlo, Consolas, &amp;quot;Courier New&amp;quot;, monospace; color: rgb(29, 28, 29); border-radius: 4px; margin-top: 4px; margin-bottom: 4px; line-height: 1.50001; word-break: normal; overflow-wrap: break-word; background: rgba(var(--sk_foreground_min,29,28,29),0.04); border: 1px solid var(--saf-0); text-align: left; box-sizing: inherit; --saf-0:rgba(var(--sk_foreground_low,29,28,29),0.13); tab-size: 4; counter-reset: list-0 0 list-1 0 list-2 0 list-3 0 list-4 0 list-5 0 list-6 0 list-7 0 list-8 0 list-9 0;&quot; data-stringify-type=&quot;pre&quot; class=&quot;c-mrkdwn__pre&quot;&gt;rdisKafka Client servers&lt;/pre&gt;" style="text;html=1;strokeColor=none;fillColor=none;align=center;verticalAlign=middle;whiteSpace=wrap;rounded=0;" vertex="1" parent="eBpZWtK9SrVDtpuc7pxj-34">
          <mxGeometry x="120" y="90" width="90" height="30" as="geometry" />
        </mxCell>
        <mxCell id="eBpZWtK9SrVDtpuc7pxj-47" value="&lt;pre style=&quot;padding: 8px; font-family: Monaco, Menlo, Consolas, &amp;quot;Courier New&amp;quot;, monospace; font-size: 12px; color: rgb(29, 28, 29); border-radius: 4px; display: block; margin: 4px 0px; line-height: 1.50001; word-break: normal; overflow-wrap: break-word; background: rgba(var(--sk_foreground_min,29,28,29),0.04); border: 1px solid var(--saf-0); font-style: normal; font-variant-ligatures: normal; font-variant-caps: normal; font-weight: 400; letter-spacing: normal; orphans: 2; text-align: left; text-indent: 0px; text-transform: none; widows: 2; word-spacing: 0px; -webkit-text-stroke-width: 0px; text-decoration-thickness: initial; text-decoration-style: initial; text-decoration-color: initial; box-sizing: inherit; --saf-0:rgba(var(--sk_foreground_low,29,28,29),0.13); tab-size: 4; counter-reset: list-0 0 list-1 0 list-2 0 list-3 0 list-4 0 list-5 0 list-6 0 list-7 0 list-8 0 list-9 0;&quot; data-stringify-type=&quot;pre&quot; class=&quot;c-mrkdwn__pre&quot;&gt;ES Client servers&lt;/pre&gt;" style="text;whiteSpace=wrap;html=1;" vertex="1" parent="eBpZWtK9SrVDtpuc7pxj-34">
          <mxGeometry x="64" y="130" width="160" height="70" as="geometry" />
        </mxCell>
        <mxCell id="eBpZWtK9SrVDtpuc7pxj-49" value="&lt;pre style=&quot;padding: 8px; font-family: Monaco, Menlo, Consolas, &amp;quot;Courier New&amp;quot;, monospace; font-size: 12px; color: rgb(29, 28, 29); border-radius: 4px; display: block; margin: 4px 0px; line-height: 1.50001; word-break: normal; overflow-wrap: break-word; background: rgba(var(--sk_foreground_min,29,28,29),0.04); border: 1px solid var(--saf-0); font-style: normal; font-variant-ligatures: normal; font-variant-caps: normal; font-weight: 400; letter-spacing: normal; orphans: 2; text-align: left; text-indent: 0px; text-transform: none; widows: 2; word-spacing: 0px; -webkit-text-stroke-width: 0px; text-decoration-thickness: initial; text-decoration-style: initial; text-decoration-color: initial; box-sizing: inherit; --saf-0:rgba(var(--sk_foreground_low,29,28,29),0.13); tab-size: 4; counter-reset: list-0 0 list-1 0 list-2 0 list-3 0 list-4 0 list-5 0 list-6 0 list-7 0 list-8 0 list-9 0;&quot; data-stringify-type=&quot;pre&quot; class=&quot;c-mrkdwn__pre&quot;&gt;kafkaES Client servers&lt;/pre&gt;" style="text;whiteSpace=wrap;html=1;" vertex="1" parent="eBpZWtK9SrVDtpuc7pxj-34">
          <mxGeometry x="65" y="190" width="200" height="70" as="geometry" />
        </mxCell>
        <mxCell id="eBpZWtK9SrVDtpuc7pxj-51" value="" style="aspect=fixed;perimeter=ellipsePerimeter;html=1;align=center;shadow=0;dashed=0;spacingTop=3;image;image=img/lib/active_directory/generic_server.svg;" vertex="1" parent="eBpZWtK9SrVDtpuc7pxj-34">
          <mxGeometry x="30" y="200" width="28.000000000000004" height="50" as="geometry" />
        </mxCell>
        <mxCell id="eBpZWtK9SrVDtpuc7pxj-55" value="" style="outlineConnect=0;dashed=0;verticalLabelPosition=bottom;verticalAlign=top;align=center;html=1;shape=mxgraph.aws3.mysql_db_instance_2;fillColor=#2E73B8;gradientColor=none;" vertex="1" parent="eBpZWtK9SrVDtpuc7pxj-34">
          <mxGeometry x="24" y="260" width="50" height="30" as="geometry" />
        </mxCell>
        <mxCell id="eBpZWtK9SrVDtpuc7pxj-52" value="&lt;pre style=&quot;padding: 8px; font-family: Monaco, Menlo, Consolas, &amp;quot;Courier New&amp;quot;, monospace; font-size: 12px; color: rgb(29, 28, 29); border-radius: 4px; display: block; margin: 4px 0px; line-height: 1.50001; word-break: normal; overflow-wrap: break-word; background: rgba(var(--sk_foreground_min,29,28,29),0.04); border: 1px solid var(--saf-0); font-style: normal; font-variant-ligatures: normal; font-variant-caps: normal; font-weight: 400; letter-spacing: normal; orphans: 2; text-align: left; text-indent: 0px; text-transform: none; widows: 2; word-spacing: 0px; -webkit-text-stroke-width: 0px; text-decoration-thickness: initial; text-decoration-style: initial; text-decoration-color: initial; box-sizing: inherit; --saf-0:rgba(var(--sk_foreground_low,29,28,29),0.13); tab-size: 4; counter-reset: list-0 0 list-1 0 list-2 0 list-3 0 list-4 0 list-5 0 list-6 0 list-7 0 list-8 0 list-9 0;&quot; data-stringify-type=&quot;pre&quot; class=&quot;c-mrkdwn__pre&quot;&gt;MySQL Client servers&lt;/pre&gt;" style="text;whiteSpace=wrap;html=1;" vertex="1" parent="eBpZWtK9SrVDtpuc7pxj-34">
          <mxGeometry x="85" y="240" width="180" height="70" as="geometry" />
        </mxCell>
        <mxCell id="eBpZWtK9SrVDtpuc7pxj-59" value="" style="dashed=0;outlineConnect=0;html=1;align=center;labelPosition=center;verticalLabelPosition=bottom;verticalAlign=top;shape=mxgraph.webicons.mongodb;gradientColor=#DFDEDE" vertex="1" parent="eBpZWtK9SrVDtpuc7pxj-34">
          <mxGeometry x="25" y="300" width="40" height="30" as="geometry" />
        </mxCell>
        <mxCell id="eBpZWtK9SrVDtpuc7pxj-57" value="&lt;pre style=&quot;padding: 8px; font-family: Monaco, Menlo, Consolas, &amp;quot;Courier New&amp;quot;, monospace; font-size: 12px; color: rgb(29, 28, 29); border-radius: 4px; display: block; margin: 4px 0px; line-height: 1.50001; word-break: normal; overflow-wrap: break-word; background: rgba(var(--sk_foreground_min,29,28,29),0.04); border: 1px solid var(--saf-0); font-style: normal; font-variant-ligatures: normal; font-variant-caps: normal; font-weight: 400; letter-spacing: normal; orphans: 2; text-align: left; text-indent: 0px; text-transform: none; widows: 2; word-spacing: 0px; -webkit-text-stroke-width: 0px; text-decoration-thickness: initial; text-decoration-style: initial; text-decoration-color: initial; box-sizing: inherit; --saf-0:rgba(var(--sk_foreground_low,29,28,29),0.13); tab-size: 4; counter-reset: list-0 0 list-1 0 list-2 0 list-3 0 list-4 0 list-5 0 list-6 0 list-7 0 list-8 0 list-9 0;&quot; data-stringify-type=&quot;pre&quot; class=&quot;c-mrkdwn__pre&quot;&gt;MongoDB Client servers&lt;/pre&gt;" style="text;whiteSpace=wrap;html=1;" vertex="1" parent="eBpZWtK9SrVDtpuc7pxj-34">
          <mxGeometry x="90" y="290" width="200" height="70" as="geometry" />
        </mxCell>
        <mxCell id="eBpZWtK9SrVDtpuc7pxj-63" value="" style="sketch=0;points=[[0,0,0],[0.25,0,0],[0.5,0,0],[0.75,0,0],[1,0,0],[0,1,0],[0.25,1,0],[0.5,1,0],[0.75,1,0],[1,1,0],[0,0.25,0],[0,0.5,0],[0,0.75,0],[1,0.25,0],[1,0.5,0],[1,0.75,0]];outlineConnect=0;fontColor=#232F3E;gradientColor=#4D72F3;gradientDirection=north;fillColor=#3334B9;strokeColor=#ffffff;dashed=0;verticalLabelPosition=bottom;verticalAlign=top;align=center;html=1;fontSize=12;fontStyle=0;aspect=fixed;shape=mxgraph.aws4.resourceIcon;resIcon=mxgraph.aws4.documentdb_with_mongodb_compatibility;" vertex="1" parent="eBpZWtK9SrVDtpuc7pxj-34">
          <mxGeometry x="29" y="340" width="40" height="40" as="geometry" />
        </mxCell>
        <mxCell id="eBpZWtK9SrVDtpuc7pxj-61" value="&lt;pre style=&quot;padding: 8px; font-family: Monaco, Menlo, Consolas, &amp;quot;Courier New&amp;quot;, monospace; font-size: 12px; color: rgb(29, 28, 29); border-radius: 4px; display: block; margin: 4px 0px; line-height: 1.50001; word-break: normal; overflow-wrap: break-word; background: rgba(var(--sk_foreground_min,29,28,29),0.04); border: 1px solid var(--saf-0); font-style: normal; font-variant-ligatures: normal; font-variant-caps: normal; font-weight: 400; letter-spacing: normal; orphans: 2; text-align: left; text-indent: 0px; text-transform: none; widows: 2; word-spacing: 0px; -webkit-text-stroke-width: 0px; text-decoration-thickness: initial; text-decoration-style: initial; text-decoration-color: initial; box-sizing: inherit; --saf-0:rgba(var(--sk_foreground_low,29,28,29),0.13); tab-size: 4; counter-reset: list-0 0 list-1 0 list-2 0 list-3 0 list-4 0 list-5 0 list-6 0 list-7 0 list-8 0 list-9 0;&quot; data-stringify-type=&quot;pre&quot; class=&quot;c-mrkdwn__pre&quot;&gt;ESMongoDB Client servers&lt;/pre&gt;" style="text;whiteSpace=wrap;html=1;" vertex="1" parent="eBpZWtK9SrVDtpuc7pxj-34">
          <mxGeometry x="90" y="340" width="180" height="50" as="geometry" />
        </mxCell>
        <mxCell id="eBpZWtK9SrVDtpuc7pxj-64" value="Private Database subnet2" style="points=[[0,0],[0.25,0],[0.5,0],[0.75,0],[1,0],[1,0.25],[1,0.5],[1,0.75],[1,1],[0.75,1],[0.5,1],[0.25,1],[0,1],[0,0.75],[0,0.5],[0,0.25]];outlineConnect=0;gradientColor=none;html=1;whiteSpace=wrap;fontSize=12;fontStyle=0;container=1;pointerEvents=0;collapsible=0;recursiveResize=0;shape=mxgraph.aws4.group;grIcon=mxgraph.aws4.group_security_group;grStroke=0;strokeColor=#147EBA;fillColor=#E6F2F8;verticalAlign=top;align=left;spacingLeft=30;fontColor=#147EBA;dashed=0;" vertex="1" parent="1">
          <mxGeometry x="610" y="590" width="220" height="160" as="geometry" />
        </mxCell>
        <mxCell id="eBpZWtK9SrVDtpuc7pxj-66" value="" style="outlineConnect=0;dashed=0;verticalLabelPosition=bottom;verticalAlign=top;align=center;html=1;shape=mxgraph.aws3.mysql_db_instance;fillColor=#2E73B8;gradientColor=none;" vertex="1" parent="eBpZWtK9SrVDtpuc7pxj-64">
          <mxGeometry x="70" y="40" width="30" height="40" as="geometry" />
        </mxCell>
        <mxCell id="eBpZWtK9SrVDtpuc7pxj-68" value="&lt;pre style=&quot;padding: 8px; font-family: Monaco, Menlo, Consolas, &amp;quot;Courier New&amp;quot;, monospace; font-size: 12px; color: rgb(29, 28, 29); border-radius: 4px; display: block; margin: 4px 0px; line-height: 1.50001; word-break: normal; overflow-wrap: break-word; background: rgba(var(--sk_foreground_min,29,28,29),0.04); border: 1px solid var(--saf-0); font-style: normal; font-variant-ligatures: normal; font-variant-caps: normal; font-weight: 400; letter-spacing: normal; orphans: 2; text-align: left; text-indent: 0px; text-transform: none; widows: 2; word-spacing: 0px; -webkit-text-stroke-width: 0px; text-decoration-thickness: initial; text-decoration-style: initial; text-decoration-color: initial; box-sizing: inherit; --saf-0:rgba(var(--sk_foreground_low,29,28,29),0.13); tab-size: 4; counter-reset: list-0 0 list-1 0 list-2 0 list-3 0 list-4 0 list-5 0 list-6 0 list-7 0 list-8 0 list-9 0;&quot; data-stringify-type=&quot;pre&quot; class=&quot;c-mrkdwn__pre&quot;&gt;MySQL&lt;/pre&gt;" style="text;whiteSpace=wrap;html=1;" vertex="1" parent="eBpZWtK9SrVDtpuc7pxj-64">
          <mxGeometry x="120" y="30" width="60" height="40" as="geometry" />
        </mxCell>
        <mxCell id="eBpZWtK9SrVDtpuc7pxj-72" value="" style="dashed=0;outlineConnect=0;html=1;align=center;labelPosition=center;verticalLabelPosition=bottom;verticalAlign=top;shape=mxgraph.webicons.mongodb;gradientColor=#DFDEDE" vertex="1" parent="eBpZWtK9SrVDtpuc7pxj-64">
          <mxGeometry x="70" y="90" width="60" height="20" as="geometry" />
        </mxCell>
        <mxCell id="eBpZWtK9SrVDtpuc7pxj-73" value="MongoDB" style="text;whiteSpace=wrap;html=1;" vertex="1" parent="eBpZWtK9SrVDtpuc7pxj-64">
          <mxGeometry x="140" y="85" width="90" height="30" as="geometry" />
        </mxCell>
        <mxCell id="eBpZWtK9SrVDtpuc7pxj-65" value="Private Database subnet1" style="points=[[0,0],[0.25,0],[0.5,0],[0.75,0],[1,0],[1,0.25],[1,0.5],[1,0.75],[1,1],[0.75,1],[0.5,1],[0.25,1],[0,1],[0,0.75],[0,0.5],[0,0.25]];outlineConnect=0;gradientColor=none;html=1;whiteSpace=wrap;fontSize=12;fontStyle=0;container=1;pointerEvents=0;collapsible=0;recursiveResize=0;shape=mxgraph.aws4.group;grIcon=mxgraph.aws4.group_security_group;grStroke=0;strokeColor=#147EBA;fillColor=#E6F2F8;verticalAlign=top;align=left;spacingLeft=30;fontColor=#147EBA;dashed=0;" vertex="1" parent="1">
          <mxGeometry x="30" y="600" width="210" height="160" as="geometry" />
        </mxCell>
        <mxCell id="eBpZWtK9SrVDtpuc7pxj-67" value="" style="outlineConnect=0;dashed=0;verticalLabelPosition=bottom;verticalAlign=top;align=center;html=1;shape=mxgraph.aws3.mysql_db_instance;fillColor=#2E73B8;gradientColor=none;" vertex="1" parent="eBpZWtK9SrVDtpuc7pxj-65">
          <mxGeometry x="12" y="40" width="38" height="40" as="geometry" />
        </mxCell>
        <mxCell id="eBpZWtK9SrVDtpuc7pxj-69" value="&lt;pre style=&quot;padding: 8px; font-family: Monaco, Menlo, Consolas, &amp;quot;Courier New&amp;quot;, monospace; font-size: 12px; color: rgb(29, 28, 29); border-radius: 4px; display: block; margin: 4px 0px; line-height: 1.50001; word-break: normal; overflow-wrap: break-word; background: rgba(var(--sk_foreground_min,29,28,29),0.04); border: 1px solid var(--saf-0); font-style: normal; font-variant-ligatures: normal; font-variant-caps: normal; font-weight: 400; letter-spacing: normal; orphans: 2; text-align: left; text-indent: 0px; text-transform: none; widows: 2; word-spacing: 0px; -webkit-text-stroke-width: 0px; text-decoration-thickness: initial; text-decoration-style: initial; text-decoration-color: initial; box-sizing: inherit; --saf-0:rgba(var(--sk_foreground_low,29,28,29),0.13); tab-size: 4; counter-reset: list-0 0 list-1 0 list-2 0 list-3 0 list-4 0 list-5 0 list-6 0 list-7 0 list-8 0 list-9 0;&quot; data-stringify-type=&quot;pre&quot; class=&quot;c-mrkdwn__pre&quot;&gt;MySQL&lt;/pre&gt;" style="text;whiteSpace=wrap;html=1;" vertex="1" parent="eBpZWtK9SrVDtpuc7pxj-65">
          <mxGeometry x="60" y="30" width="60" height="30" as="geometry" />
        </mxCell>
        <mxCell id="eBpZWtK9SrVDtpuc7pxj-70" value="" style="dashed=0;outlineConnect=0;html=1;align=center;labelPosition=center;verticalLabelPosition=bottom;verticalAlign=top;shape=mxgraph.webicons.mongodb;gradientColor=#DFDEDE" vertex="1" parent="eBpZWtK9SrVDtpuc7pxj-65">
          <mxGeometry x="12" y="90" width="38" height="30" as="geometry" />
        </mxCell>
        <mxCell id="eBpZWtK9SrVDtpuc7pxj-71" value="&lt;pre style=&quot;padding: 8px; font-family: Monaco, Menlo, Consolas, &amp;quot;Courier New&amp;quot;, monospace; font-size: 12px; color: rgb(29, 28, 29); border-radius: 4px; display: block; margin: 4px 0px; line-height: 1.50001; word-break: normal; overflow-wrap: break-word; background: rgba(var(--sk_foreground_min,29,28,29),0.04); border: 1px solid var(--saf-0); font-style: normal; font-variant-ligatures: normal; font-variant-caps: normal; font-weight: 400; letter-spacing: normal; orphans: 2; text-align: left; text-indent: 0px; text-transform: none; widows: 2; word-spacing: 0px; -webkit-text-stroke-width: 0px; text-decoration-thickness: initial; text-decoration-style: initial; text-decoration-color: initial; box-sizing: inherit; --saf-0:rgba(var(--sk_foreground_low,29,28,29),0.13); tab-size: 4; counter-reset: list-0 0 list-1 0 list-2 0 list-3 0 list-4 0 list-5 0 list-6 0 list-7 0 list-8 0 list-9 0;&quot; data-stringify-type=&quot;pre&quot; class=&quot;c-mrkdwn__pre&quot;&gt;MongoDB&lt;/pre&gt;" style="text;whiteSpace=wrap;html=1;" vertex="1" parent="eBpZWtK9SrVDtpuc7pxj-65">
          <mxGeometry x="60" y="80" width="60" height="40" as="geometry" />
        </mxCell>
        <mxCell id="eBpZWtK9SrVDtpuc7pxj-74" value="Private Middleware&amp;nbsp; subnet2&lt;br&gt;" style="points=[[0,0],[0.25,0],[0.5,0],[0.75,0],[1,0],[1,0.25],[1,0.5],[1,0.75],[1,1],[0.75,1],[0.5,1],[0.25,1],[0,1],[0,0.75],[0,0.5],[0,0.25]];outlineConnect=0;gradientColor=none;html=1;whiteSpace=wrap;fontSize=12;fontStyle=0;container=1;pointerEvents=0;collapsible=0;recursiveResize=0;shape=mxgraph.aws4.group;grIcon=mxgraph.aws4.group_security_group;grStroke=0;strokeColor=#147EBA;fillColor=#E6F2F8;verticalAlign=top;align=left;spacingLeft=30;fontColor=#147EBA;dashed=0;" vertex="1" parent="1">
          <mxGeometry x="620" y="790" width="190" height="180" as="geometry" />
        </mxCell>
        <mxCell id="eBpZWtK9SrVDtpuc7pxj-77" value="" style="outlineConnect=0;dashed=0;verticalLabelPosition=bottom;verticalAlign=top;align=center;html=1;shape=mxgraph.aws3.redis;fillColor=#2E73B8;gradientColor=none;" vertex="1" parent="eBpZWtK9SrVDtpuc7pxj-74">
          <mxGeometry x="35" y="40" width="35" height="30" as="geometry" />
        </mxCell>
        <mxCell id="eBpZWtK9SrVDtpuc7pxj-79" value="Redis" style="text;whiteSpace=wrap;html=1;" vertex="1" parent="eBpZWtK9SrVDtpuc7pxj-74">
          <mxGeometry x="90" y="40" width="50" height="30" as="geometry" />
        </mxCell>
        <mxCell id="eBpZWtK9SrVDtpuc7pxj-81" value="" style="sketch=0;points=[[0,0,0],[0.25,0,0],[0.5,0,0],[0.75,0,0],[1,0,0],[0,1,0],[0.25,1,0],[0.5,1,0],[0.75,1,0],[1,1,0],[0,0.25,0],[0,0.5,0],[0,0.75,0],[1,0.25,0],[1,0.5,0],[1,0.75,0]];outlineConnect=0;fontColor=#232F3E;gradientColor=#945DF2;gradientDirection=north;fillColor=#5A30B5;strokeColor=#ffffff;dashed=0;verticalLabelPosition=bottom;verticalAlign=top;align=center;html=1;fontSize=12;fontStyle=0;aspect=fixed;shape=mxgraph.aws4.resourceIcon;resIcon=mxgraph.aws4.managed_streaming_for_kafka;" vertex="1" parent="eBpZWtK9SrVDtpuc7pxj-74">
          <mxGeometry x="35" y="75" width="30" height="30" as="geometry" />
        </mxCell>
        <mxCell id="eBpZWtK9SrVDtpuc7pxj-82" value="&lt;pre style=&quot;padding: 8px; font-family: Monaco, Menlo, Consolas, &amp;quot;Courier New&amp;quot;, monospace; font-size: 12px; color: rgb(29, 28, 29); border-radius: 4px; display: block; margin: 4px 0px; line-height: 1.50001; word-break: normal; overflow-wrap: break-word; background: rgba(var(--sk_foreground_min,29,28,29),0.04); border: 1px solid var(--saf-0); font-style: normal; font-variant-ligatures: normal; font-variant-caps: normal; font-weight: 400; letter-spacing: normal; orphans: 2; text-align: left; text-indent: 0px; text-transform: none; widows: 2; word-spacing: 0px; -webkit-text-stroke-width: 0px; text-decoration-thickness: initial; text-decoration-style: initial; text-decoration-color: initial; box-sizing: inherit; --saf-0:rgba(var(--sk_foreground_low,29,28,29),0.13); tab-size: 4; counter-reset: list-0 0 list-1 0 list-2 0 list-3 0 list-4 0 list-5 0 list-6 0 list-7 0 list-8 0 list-9 0;&quot; data-stringify-type=&quot;pre&quot; class=&quot;c-mrkdwn__pre&quot;&gt;Kafka&lt;/pre&gt;" style="text;whiteSpace=wrap;html=1;" vertex="1" parent="eBpZWtK9SrVDtpuc7pxj-74">
          <mxGeometry x="80" y="60" width="50" height="30" as="geometry" />
        </mxCell>
        <mxCell id="eBpZWtK9SrVDtpuc7pxj-85" value="" style="outlineConnect=0;dashed=0;verticalLabelPosition=bottom;verticalAlign=top;align=center;html=1;shape=mxgraph.aws3.elasticsearch_service;fillColor=#F58534;gradientColor=none;" vertex="1" parent="eBpZWtK9SrVDtpuc7pxj-74">
          <mxGeometry x="30" y="105" width="40" height="35" as="geometry" />
        </mxCell>
        <mxCell id="eBpZWtK9SrVDtpuc7pxj-87" value="Elasticsearch" style="text;whiteSpace=wrap;html=1;" vertex="1" parent="eBpZWtK9SrVDtpuc7pxj-74">
          <mxGeometry x="90" y="112.5" width="70" height="20" as="geometry" />
        </mxCell>
        <mxCell id="eBpZWtK9SrVDtpuc7pxj-75" value="Private Middleware&amp;nbsp; subnet1" style="points=[[0,0],[0.25,0],[0.5,0],[0.75,0],[1,0],[1,0.25],[1,0.5],[1,0.75],[1,1],[0.75,1],[0.5,1],[0.25,1],[0,1],[0,0.75],[0,0.5],[0,0.25]];outlineConnect=0;gradientColor=none;html=1;whiteSpace=wrap;fontSize=12;fontStyle=0;container=1;pointerEvents=0;collapsible=0;recursiveResize=0;shape=mxgraph.aws4.group;grIcon=mxgraph.aws4.group_security_group;grStroke=0;strokeColor=#147EBA;fillColor=#E6F2F8;verticalAlign=top;align=left;spacingLeft=30;fontColor=#147EBA;dashed=0;" vertex="1" parent="1">
          <mxGeometry x="40" y="810" width="190" height="190" as="geometry" />
        </mxCell>
        <mxCell id="eBpZWtK9SrVDtpuc7pxj-76" value="" style="outlineConnect=0;dashed=0;verticalLabelPosition=bottom;verticalAlign=top;align=center;html=1;shape=mxgraph.aws3.redis;fillColor=#2E73B8;gradientColor=none;" vertex="1" parent="eBpZWtK9SrVDtpuc7pxj-75">
          <mxGeometry x="15" y="40" width="40" height="30" as="geometry" />
        </mxCell>
        <mxCell id="eBpZWtK9SrVDtpuc7pxj-78" value="Redis" style="text;whiteSpace=wrap;html=1;" vertex="1" parent="eBpZWtK9SrVDtpuc7pxj-75">
          <mxGeometry x="80" y="40" width="50" height="30" as="geometry" />
        </mxCell>
        <mxCell id="eBpZWtK9SrVDtpuc7pxj-80" value="" style="sketch=0;points=[[0,0,0],[0.25,0,0],[0.5,0,0],[0.75,0,0],[1,0,0],[0,1,0],[0.25,1,0],[0.5,1,0],[0.75,1,0],[1,1,0],[0,0.25,0],[0,0.5,0],[0,0.75,0],[1,0.25,0],[1,0.5,0],[1,0.75,0]];outlineConnect=0;fontColor=#232F3E;gradientColor=#945DF2;gradientDirection=north;fillColor=#5A30B5;strokeColor=#ffffff;dashed=0;verticalLabelPosition=bottom;verticalAlign=top;align=center;html=1;fontSize=12;fontStyle=0;aspect=fixed;shape=mxgraph.aws4.resourceIcon;resIcon=mxgraph.aws4.managed_streaming_for_kafka;" vertex="1" parent="eBpZWtK9SrVDtpuc7pxj-75">
          <mxGeometry x="15" y="80" width="40" height="40" as="geometry" />
        </mxCell>
        <mxCell id="eBpZWtK9SrVDtpuc7pxj-83" value="&lt;pre style=&quot;padding: 8px; font-family: Monaco, Menlo, Consolas, &amp;quot;Courier New&amp;quot;, monospace; font-size: 12px; color: rgb(29, 28, 29); border-radius: 4px; display: block; margin: 4px 0px; line-height: 1.50001; word-break: normal; overflow-wrap: break-word; background: rgba(var(--sk_foreground_min,29,28,29),0.04); border: 1px solid var(--saf-0); font-style: normal; font-variant-ligatures: normal; font-variant-caps: normal; font-weight: 400; letter-spacing: normal; orphans: 2; text-align: left; text-indent: 0px; text-transform: none; widows: 2; word-spacing: 0px; -webkit-text-stroke-width: 0px; text-decoration-thickness: initial; text-decoration-style: initial; text-decoration-color: initial; box-sizing: inherit; --saf-0:rgba(var(--sk_foreground_low,29,28,29),0.13); tab-size: 4; counter-reset: list-0 0 list-1 0 list-2 0 list-3 0 list-4 0 list-5 0 list-6 0 list-7 0 list-8 0 list-9 0;&quot; data-stringify-type=&quot;pre&quot; class=&quot;c-mrkdwn__pre&quot;&gt;Kafka&lt;/pre&gt;" style="text;whiteSpace=wrap;html=1;" vertex="1" parent="eBpZWtK9SrVDtpuc7pxj-75">
          <mxGeometry x="70" y="70" width="50" height="50" as="geometry" />
        </mxCell>
        <mxCell id="eBpZWtK9SrVDtpuc7pxj-84" value="" style="outlineConnect=0;dashed=0;verticalLabelPosition=bottom;verticalAlign=top;align=center;html=1;shape=mxgraph.aws3.elasticsearch_service;fillColor=#F58534;gradientColor=none;" vertex="1" parent="eBpZWtK9SrVDtpuc7pxj-75">
          <mxGeometry x="15" y="130" width="40" height="40" as="geometry" />
        </mxCell>
        <mxCell id="eBpZWtK9SrVDtpuc7pxj-86" value="Elasticsearch" style="text;whiteSpace=wrap;html=1;" vertex="1" parent="eBpZWtK9SrVDtpuc7pxj-75">
          <mxGeometry x="70" y="135" width="70" height="30" as="geometry" />
        </mxCell>
        <mxCell id="eBpZWtK9SrVDtpuc7pxj-88" value="" style="rounded=1;arcSize=10;dashed=1;strokeColor=#F59D56;fillColor=none;gradientColor=none;dashPattern=8 4;strokeWidth=2;" vertex="1" parent="1">
          <mxGeometry x="20" y="-150" width="300" height="1210" as="geometry" />
        </mxCell>
        <mxCell id="eBpZWtK9SrVDtpuc7pxj-89" value="" style="rounded=1;arcSize=10;dashed=1;strokeColor=#F59D56;fillColor=none;gradientColor=none;dashPattern=8 4;strokeWidth=2;" vertex="1" parent="1">
          <mxGeometry x="500" y="-150" width="380" height="1230" as="geometry" />
        </mxCell>
        <mxCell id="eBpZWtK9SrVDtpuc7pxj-90" value="Public subnet" style="points=[[0,0],[0.25,0],[0.5,0],[0.75,0],[1,0],[1,0.25],[1,0.5],[1,0.75],[1,1],[0.75,1],[0.5,1],[0.25,1],[0,1],[0,0.75],[0,0.5],[0,0.25]];outlineConnect=0;gradientColor=none;html=1;whiteSpace=wrap;fontSize=12;fontStyle=0;container=1;pointerEvents=0;collapsible=0;recursiveResize=0;shape=mxgraph.aws4.group;grIcon=mxgraph.aws4.group_security_group;grStroke=0;strokeColor=#248814;fillColor=#E9F3E6;verticalAlign=top;align=left;spacingLeft=30;fontColor=#248814;dashed=0;" vertex="1" parent="1">
          <mxGeometry x="50" y="-15.5" width="120" height="100" as="geometry" />
        </mxCell>
        <mxCell id="eBpZWtK9SrVDtpuc7pxj-91" value="Public subnet" style="points=[[0,0],[0.25,0],[0.5,0],[0.75,0],[1,0],[1,0.25],[1,0.5],[1,0.75],[1,1],[0.75,1],[0.5,1],[0.25,1],[0,1],[0,0.75],[0,0.5],[0,0.25]];outlineConnect=0;gradientColor=none;html=1;whiteSpace=wrap;fontSize=12;fontStyle=0;container=1;pointerEvents=0;collapsible=0;recursiveResize=0;shape=mxgraph.aws4.group;grIcon=mxgraph.aws4.group_security_group;grStroke=0;strokeColor=#248814;fillColor=#E9F3E6;verticalAlign=top;align=left;spacingLeft=30;fontColor=#248814;dashed=0;" vertex="1" parent="1">
          <mxGeometry x="570" y="-60" width="210" height="130" as="geometry" />
        </mxCell>
        <mxCell id="eBpZWtK9SrVDtpuc7pxj-92" value="" style="outlineConnect=0;dashed=0;verticalLabelPosition=bottom;verticalAlign=top;align=center;html=1;shape=mxgraph.aws3.route_table;fillColor=#F58536;gradientColor=none;" vertex="1" parent="1">
          <mxGeometry x="370" width="75" height="69" as="geometry" />
        </mxCell>
        <mxCell id="eBpZWtK9SrVDtpuc7pxj-93" value="" style="outlineConnect=0;dashed=0;verticalLabelPosition=bottom;verticalAlign=top;align=center;html=1;shape=mxgraph.aws3.route_table;fillColor=#F58536;gradientColor=none;" vertex="1" parent="1">
          <mxGeometry x="380" y="650" width="75" height="69" as="geometry" />
        </mxCell>
        <mxCell id="eBpZWtK9SrVDtpuc7pxj-94" value="" style="outlineConnect=0;dashed=0;verticalLabelPosition=bottom;verticalAlign=top;align=center;html=1;shape=mxgraph.aws3.route_table;fillColor=#F58536;gradientColor=none;" vertex="1" parent="1">
          <mxGeometry x="380" y="880" width="75" height="69" as="geometry" />
        </mxCell>
        <mxCell id="eBpZWtK9SrVDtpuc7pxj-95" value="" style="outlineConnect=0;dashed=0;verticalLabelPosition=bottom;verticalAlign=top;align=center;html=1;shape=mxgraph.aws3.route_table;fillColor=#F58536;gradientColor=none;" vertex="1" parent="1">
          <mxGeometry x="380" y="260" width="75" height="69" as="geometry" />
        </mxCell>
        <mxCell id="eBpZWtK9SrVDtpuc7pxj-96" value="" style="outlineConnect=0;dashed=0;verticalLabelPosition=bottom;verticalAlign=top;align=center;html=1;shape=mxgraph.aws3.vpc_nat_gateway;fillColor=#F58534;gradientColor=none;" vertex="1" parent="1">
          <mxGeometry x="570" y="-10" width="69" height="72" as="geometry" />
        </mxCell>
        <mxCell id="eBpZWtK9SrVDtpuc7pxj-97" value="" style="html=1;verticalLabelPosition=bottom;align=center;labelBackgroundColor=#ffffff;verticalAlign=top;strokeWidth=2;strokeColor=#0080F0;shadow=0;dashed=0;shape=mxgraph.ios7.icons.locked;" vertex="1" parent="1">
          <mxGeometry x="216" y="865" width="24" height="30" as="geometry" />
        </mxCell>
        <mxCell id="eBpZWtK9SrVDtpuc7pxj-98" value="" style="html=1;verticalLabelPosition=bottom;align=center;labelBackgroundColor=#ffffff;verticalAlign=top;strokeWidth=2;strokeColor=#0080F0;shadow=0;dashed=0;shape=mxgraph.ios7.icons.locked;" vertex="1" parent="1">
          <mxGeometry x="610" y="865" width="24" height="30" as="geometry" />
        </mxCell>
        <mxCell id="eBpZWtK9SrVDtpuc7pxj-99" value="" style="html=1;verticalLabelPosition=bottom;align=center;labelBackgroundColor=#ffffff;verticalAlign=top;strokeWidth=2;strokeColor=#0080F0;shadow=0;dashed=0;shape=mxgraph.ios7.icons.locked;" vertex="1" parent="1">
          <mxGeometry x="230" y="650" width="24" height="30" as="geometry" />
        </mxCell>
        <mxCell id="eBpZWtK9SrVDtpuc7pxj-100" value="" style="html=1;verticalLabelPosition=bottom;align=center;labelBackgroundColor=#ffffff;verticalAlign=top;strokeWidth=2;strokeColor=#0080F0;shadow=0;dashed=0;shape=mxgraph.ios7.icons.locked;" vertex="1" parent="1">
          <mxGeometry x="596" y="665" width="24" height="30" as="geometry" />
        </mxCell>
        <mxCell id="eBpZWtK9SrVDtpuc7pxj-101" value="" style="endArrow=classic;html=1;rounded=0;" edge="1" parent="1">
          <mxGeometry width="50" height="50" relative="1" as="geometry">
            <mxPoint x="320" y="290" as="sourcePoint" />
            <mxPoint x="370" y="290" as="targetPoint" />
            <Array as="points">
              <mxPoint x="310" y="290" />
            </Array>
          </mxGeometry>
        </mxCell>
        <mxCell id="eBpZWtK9SrVDtpuc7pxj-102" value="" style="endArrow=classic;html=1;rounded=0;" edge="1" parent="1">
          <mxGeometry width="50" height="50" relative="1" as="geometry">
            <mxPoint x="180" y="30" as="sourcePoint" />
            <mxPoint x="360" y="30" as="targetPoint" />
            <Array as="points">
              <mxPoint x="180" y="30" />
            </Array>
          </mxGeometry>
        </mxCell>
        <mxCell id="eBpZWtK9SrVDtpuc7pxj-103" value="" style="endArrow=classic;html=1;rounded=0;" edge="1" parent="1">
          <mxGeometry width="50" height="50" relative="1" as="geometry">
            <mxPoint x="250" y="880" as="sourcePoint" />
            <mxPoint x="370" y="910" as="targetPoint" />
            <Array as="points">
              <mxPoint x="250" y="880" />
            </Array>
          </mxGeometry>
        </mxCell>
        <mxCell id="eBpZWtK9SrVDtpuc7pxj-104" value="" style="endArrow=classic;html=1;rounded=0;" edge="1" parent="1">
          <mxGeometry width="50" height="50" relative="1" as="geometry">
            <mxPoint x="610" y="890" as="sourcePoint" />
            <mxPoint x="460" y="900" as="targetPoint" />
            <Array as="points">
              <mxPoint x="610" y="890" />
            </Array>
          </mxGeometry>
        </mxCell>
        <mxCell id="eBpZWtK9SrVDtpuc7pxj-105" value="" style="endArrow=classic;html=1;rounded=0;exitX=0.5;exitY=0;exitDx=0;exitDy=0;exitPerimeter=0;" edge="1" parent="1" source="eBpZWtK9SrVDtpuc7pxj-94">
          <mxGeometry width="50" height="50" relative="1" as="geometry">
            <mxPoint x="410" y="840" as="sourcePoint" />
            <mxPoint x="420" y="720" as="targetPoint" />
          </mxGeometry>
        </mxCell>
        <mxCell id="eBpZWtK9SrVDtpuc7pxj-106" value="" style="endArrow=classic;html=1;rounded=0;" edge="1" parent="1">
          <mxGeometry width="50" height="50" relative="1" as="geometry">
            <mxPoint x="280" y="670" as="sourcePoint" />
            <mxPoint x="370" y="680" as="targetPoint" />
            <Array as="points">
              <mxPoint x="270" y="670" />
            </Array>
          </mxGeometry>
        </mxCell>
        <mxCell id="eBpZWtK9SrVDtpuc7pxj-107" value="" style="endArrow=classic;html=1;rounded=0;" edge="1" parent="1">
          <mxGeometry width="50" height="50" relative="1" as="geometry">
            <mxPoint x="580" y="680" as="sourcePoint" />
            <mxPoint x="460" y="680" as="targetPoint" />
            <Array as="points">
              <mxPoint x="590" y="680" />
            </Array>
          </mxGeometry>
        </mxCell>
        <mxCell id="eBpZWtK9SrVDtpuc7pxj-108" value="" style="endArrow=classic;html=1;rounded=0;" edge="1" parent="1">
          <mxGeometry width="50" height="50" relative="1" as="geometry">
            <mxPoint x="410" y="640" as="sourcePoint" />
            <mxPoint x="410" y="340" as="targetPoint" />
          </mxGeometry>
        </mxCell>
        <mxCell id="eBpZWtK9SrVDtpuc7pxj-109" value="" style="endArrow=classic;html=1;rounded=0;" edge="1" parent="1">
          <mxGeometry width="50" height="50" relative="1" as="geometry">
            <mxPoint x="560" y="290" as="sourcePoint" />
            <mxPoint x="460" y="290" as="targetPoint" />
            <Array as="points">
              <mxPoint x="570" y="290" />
            </Array>
          </mxGeometry>
        </mxCell>
        <mxCell id="eBpZWtK9SrVDtpuc7pxj-110" value="" style="endArrow=classic;html=1;rounded=0;entryX=0.184;entryY=0.163;entryDx=0;entryDy=0;entryPerimeter=0;" edge="1" parent="1" target="eBpZWtK9SrVDtpuc7pxj-89">
          <mxGeometry width="50" height="50" relative="1" as="geometry">
            <mxPoint x="440" y="250" as="sourcePoint" />
            <mxPoint x="460" y="250" as="targetPoint" />
          </mxGeometry>
        </mxCell>
        <mxCell id="eBpZWtK9SrVDtpuc7pxj-111" value="" style="endArrow=classic;html=1;rounded=0;" edge="1" parent="1">
          <mxGeometry width="50" height="50" relative="1" as="geometry">
            <mxPoint x="560" y="20" as="sourcePoint" />
            <mxPoint x="450" y="30" as="targetPoint" />
            <Array as="points">
              <mxPoint x="560" y="30" />
            </Array>
          </mxGeometry>
        </mxCell>
        <mxCell id="eBpZWtK9SrVDtpuc7pxj-112" value="Region" style="points=[[0,0],[0.25,0],[0.5,0],[0.75,0],[1,0],[1,0.25],[1,0.5],[1,0.75],[1,1],[0.75,1],[0.5,1],[0.25,1],[0,1],[0,0.75],[0,0.5],[0,0.25]];outlineConnect=0;gradientColor=none;html=1;whiteSpace=wrap;fontSize=12;fontStyle=0;container=1;pointerEvents=0;collapsible=0;recursiveResize=0;shape=mxgraph.aws4.group;grIcon=mxgraph.aws4.group_region;strokeColor=#147EBA;fillColor=none;verticalAlign=top;align=left;spacingLeft=30;fontColor=#147EBA;dashed=1;" vertex="1" parent="1">
          <mxGeometry x="10" y="-220" width="890" height="1320" as="geometry" />
        </mxCell>
        <mxCell id="eBpZWtK9SrVDtpuc7pxj-113" value="VPC" style="points=[[0,0],[0.25,0],[0.5,0],[0.75,0],[1,0],[1,0.25],[1,0.5],[1,0.75],[1,1],[0.75,1],[0.5,1],[0.25,1],[0,1],[0,0.75],[0,0.5],[0,0.25]];outlineConnect=0;gradientColor=none;html=1;whiteSpace=wrap;fontSize=12;fontStyle=0;container=1;pointerEvents=0;collapsible=0;recursiveResize=0;shape=mxgraph.aws4.group;grIcon=mxgraph.aws4.group_vpc;strokeColor=#248814;fillColor=none;verticalAlign=top;align=left;spacingLeft=30;fontColor=#AAB7B8;dashed=0;" vertex="1" parent="1">
          <mxGeometry y="-280" width="920" height="1430" as="geometry" />
        </mxCell>
        <mxCell id="eBpZWtK9SrVDtpuc7pxj-114" value="" style="outlineConnect=0;dashed=0;verticalLabelPosition=bottom;verticalAlign=top;align=center;html=1;shape=mxgraph.aws3.internet_gateway;fillColor=#F58536;gradientColor=none;" vertex="1" parent="1">
          <mxGeometry x="383" y="-320" width="69" height="72" as="geometry" />
        </mxCell>
        <mxCell id="eBpZWtK9SrVDtpuc7pxj-115" value="" style="endArrow=classic;html=1;rounded=0;" edge="1" parent="1" target="eBpZWtK9SrVDtpuc7pxj-114">
          <mxGeometry width="50" height="50" relative="1" as="geometry">
            <mxPoint x="410" y="-10" as="sourcePoint" />
            <mxPoint x="540" y="-130" as="targetPoint" />
            <Array as="points">
              <mxPoint x="410" y="-10" />
            </Array>
          </mxGeometry>
        </mxCell>
        <mxCell id="eBpZWtK9SrVDtpuc7pxj-116" value="" style="sketch=0;outlineConnect=0;fontColor=#232F3E;gradientColor=none;fillColor=#232F3D;strokeColor=none;dashed=0;verticalLabelPosition=bottom;verticalAlign=top;align=center;html=1;fontSize=12;fontStyle=0;aspect=fixed;pointerEvents=1;shape=mxgraph.aws4.internet_alt22;" vertex="1" parent="1">
          <mxGeometry x="383" y="-440" width="78" height="78" as="geometry" />
        </mxCell>
        <mxCell id="eBpZWtK9SrVDtpuc7pxj-117" value="" style="shape=flexArrow;endArrow=classic;startArrow=classic;html=1;rounded=0;" edge="1" parent="1" source="eBpZWtK9SrVDtpuc7pxj-114" target="eBpZWtK9SrVDtpuc7pxj-116">
          <mxGeometry width="100" height="100" relative="1" as="geometry">
            <mxPoint x="470" y="-250" as="sourcePoint" />
            <mxPoint x="570" y="-350" as="targetPoint" />
          </mxGeometry>
        </mxCell>
        <mxCell id="eBpZWtK9SrVDtpuc7pxj-118" value="public route table" style="text;whiteSpace=wrap;html=1;" vertex="1" parent="1">
          <mxGeometry x="380" y="70" width="120" height="40" as="geometry" />
        </mxCell>
        <mxCell id="eBpZWtK9SrVDtpuc7pxj-119" value="private route table" style="text;whiteSpace=wrap;html=1;" vertex="1" parent="1">
          <mxGeometry x="380" y="340" width="130" height="40" as="geometry" />
        </mxCell>
        <mxCell id="eBpZWtK9SrVDtpuc7pxj-120" value="private route table" style="text;whiteSpace=wrap;html=1;" vertex="1" parent="1">
          <mxGeometry x="370" y="730" width="130" height="40" as="geometry" />
        </mxCell>
        <mxCell id="eBpZWtK9SrVDtpuc7pxj-121" value="private route table" style="text;whiteSpace=wrap;html=1;" vertex="1" parent="1">
          <mxGeometry x="380" y="960" width="130" height="40" as="geometry" />
        </mxCell>
      </root>
    </mxGraphModel>
  </diagram>
</mxfile>
